<?xml version="1.0" encoding="UTF-8"?><svg id="Layer_2" xmlns="http://www.w3.org/2000/svg" xmlns:xlink="http://www.w3.org/1999/xlink" viewBox="0 0 252.03 188.86"><defs><style>.cls-1{fill:#f8ac7f;}.cls-1,.cls-2,.cls-3,.cls-4,.cls-5{stroke-width:0px;}.cls-2,.cls-6{fill:#e34b25;}.cls-6{font-family:Dienstag-Bold, Dienstag;font-size:58.89px;font-weight:700;}.cls-3{fill:none;}.cls-7{clip-path:url(#clippath);}.cls-4{fill:#30449b;}.cls-5{fill:#231f20;}</style><clipPath id="clippath"><path class="cls-3" d="M175.55,167.64c.84.22,1.45-.79.87-1.44l-45.74-50.35-17.75-20.49-.33,25.06-.82,65.17c-.01.98,1.24,1.41,1.83.62l14.14-18.87,6.58,19.64c.48,1.42,2.03,2.18,3.44,1.67l20.42-7.37c1.35-.49,2-2.02,1.41-3.33l-7.35-16.36,23.3,6.04Z"/></clipPath></defs><g id="Layer_1-2"><path class="cls-4" d="M65.71,109.21c-3.14,1.43-6.01,2.14-9.5,4.28l-.07.94c5.23,2.42,5.71,2.66,10.6,6.29l-4.19,26.08c-5.96,1.34-9.78,1.58-18.31,3.58l-41.85-3.09,5.31-72.01,40.4,2.98c9.93,2.98,12.08,3.46,17.52,5.8l.09,25.14ZM47.98,93.69l-27.26-1.41-1.02,13.88,27.48,1.42M48.94,120.69l-30.18-1.79-1.07,14.51,30.38,1.81"/><path class="cls-4" d="M194.58,145.81l-16.24-7.45,22.96-30.1-18.89-30.8,16.75-5.4,13.89,26.17,15.17-26.98,18.67,8.78-21.33,29.19,21.66,34.18-19.79,5.07-15.55-28.88-17.3,26.21Z"/><polygon class="cls-4" points="108.34 136.2 94.59 138.51 89.14 91.52 152.02 82.49 158.28 128.45 149.59 129.78 160.69 143.07 174.92 140.89 164.69 65.71 72.76 78.9 81.69 155.7 108.08 151.26 108.34 136.2"/><path class="cls-1" d="M113.79,185.98c-.65.86-2.02.4-2.01-.68l.82-64.87.33-25.06,17.75,20.49,45.66,50.21c.68.74-.05,1.9-1.02,1.62l-39.14-11.6-22.4,29.89Z"/><path class="cls-5" d="M112.6,120.43l.33-25.06,17.75,20.49c-1.87-.93-6.06-2.7-10.46-1.62-4.49,1.1-6.74,4.57-7.63,6.2Z"/><path class="cls-1" d="M126.52,162.8l7.89,24.35c.43,1.33,1.88,2.04,3.2,1.57l20.86-7.53c1.21-.44,1.8-1.8,1.28-2.98l-10.67-24.38-25.47,1.97,2.93,7.01Z"/><g class="cls-7"><path class="cls-2" d="M157.68,137.9c-.11.27-.28.43-.35.76-1.84,8.6-11.28,6.63-13,5.37-.07-.05-.21-.11-.26-.16-4.64,8.84-14.71,10.83-21.77,7.92-.13-.05-.27-.08-.39-.13-.47,4.23-7.98,11.23-15.87,9.89-2.14-.36-4.31-1.3-6.38-3.12l-5.54,18.44,5.14,22.61,23.33,10.54,36.7,1.64,26.88-12.33s6.65-21.78,6.25-29.25c-.39-7.28-30.65-42.09-34.75-32.18Z"/></g><text class="cls-6" transform="translate(0 50.71)"><tspan x="0" y="0">supplyz</tspan></text></g></svg>